# xmcd
#
# Track frame offsets: 
#        150
#        12665
#        24162
#        40470
#        59777
#        75905
#        105867
#        124420
#        149495
#        161077
#        173870
#        184817
#        201062
#        216545
#        230272
#        248852
#
# Disc length: 3551 seconds
#
# Revision: 0
# Processed by: cddbd v1.5.1PL2 Copyright (c) Steve Scherf et al.
# Submitted via: ExactAudioCopy v0.95a5
#
DISCID=e30ddd10
DTITLE=Martijn Schok Boogie Woogie Trio - Trainride
DYEAR=1998
DGENRE=Blues
TTITLE0=Duo Stomp
TTITLE1=Trainride
TTITLE2=Beehive Blues
TTITLE3=Mr Freddie Blues
TTITLE4=The Sheik of Araby
TTITLE5=Mississippi Boogie
TTITLE6=The Fives
TTITLE7=Chicago Breakdown
TTITLE8=Walking Bass Boogie
TTITLE9=Rock It For Pete
TTITLE10=Boogie for Big Hand Tom
TTITLE11=Silhouette Blues
TTITLE12=Express Train Boogie
TTITLE13=Shake That Thing
TTITLE14=Bottomland Boogie
TTITLE15=Rainy Weather Blues
EXTD=
EXTT0=
EXTT1=
EXTT2=
EXTT3=
EXTT4=
EXTT5=
EXTT6=
EXTT7=
EXTT8=
EXTT9=
EXTT10=
EXTT11=
EXTT12=
EXTT13=
EXTT14=
EXTT15=
PLAYORDER=
